{
  "accessors": [
    {
      "bufferView": 2,
      "componentType": 5126,
      "count": 65533,
      "max": [
        3.1799418926239014,
        -5.581002235412598,
        4.423313140869141
      ],
      "min": [
        -2.917736053466797,
        -10.517334938049316,
        -3.919434070587158
      ],
      "type": "VEC3"
    },
    {
      "bufferView": 2,
      "byteOffset": 786396,
      "componentType": 5126,
      "count": 65533,
      "max": [
        0.9996621012687683,
        0.9999986290931702,
        0.9999799728393555
      ],
      "min": [
        -0.9999511241912842,
        -0.9999988675117493,
        -0.9999942183494568
      ],
      "type": "VEC3"
    },
    {
      "bufferView": 1,
      "componentType": 5126,
      "count": 65533,
      "max": [
        0.9993410110473633,
        0.999580979347229
      ],
      "min": [
        0.00034500000765547156,
        0.0005310000269673765
      ],
      "type": "VEC2"
    },
    {
      "bufferView": 0,
      "componentType": 5125,
      "count": 287136,
      "type": "SCALAR"
    },
    {
      "bufferView": 2,
      "byteOffset": 1572792,
      "componentType": 5126,
      "count": 65533,
      "max": [
        3.1570630073547363,
        -5.557176113128662,
        4.423313140869141
      ],
      "min": [
        -2.9095048904418945,
        -10.513696670532227,
        -3.921889066696167
      ],
      "type": "VEC3"
    },
    {
      "bufferView": 2,
      "byteOffset": 2359188,
      "componentType": 5126,
      "count": 65533,
      "max": [
        0.9999471306800842,
        0.9999793767929077,
        0.9999799728393555
      ],
      "min": [
        -0.9999104738235474,
        -0.9999908804893494,
        -0.9999942183494568
      ],
      "type": "VEC3"
    },
    {
      "bufferView": 1,
      "byteOffset": 524264,
      "componentType": 5126,
      "count": 65533,
      "max": [
        0.9994900226593018,
        0.9996539950370789
      ],
      "min": [
        0.00034699999378062785,
        0.0005779999773949385
      ],
      "type": "VEC2"
    },
    {
      "bufferView": 0,
      "byteOffset": 1148544,
      "componentType": 5125,
      "count": 225195,
      "type": "SCALAR"
    },
    {
      "bufferView": 2,
      "byteOffset": 3145584,
      "componentType": 5126,
      "count": 65532,
      "max": [
        3.1799418926239014,
        -5.547606945037842,
        4.423313140869141
      ],
      "min": [
        -2.9249401092529297,
        -10.517334938049316,
        -3.9105799198150635
      ],
      "type": "VEC3"
    },
    {
      "bufferView": 2,
      "byteOffset": 3931968,
      "componentType": 5126,
      "count": 65532,
      "max": [
        0.999958872795105,
        0.9999992251396179,
        0.9999918937683105
      ],
      "min": [
        -0.9999511241912842,
        -0.9999988675117493,
        -0.9999942183494568
      ],
      "type": "VEC3"
    },
    {
      "bufferView": 1,
      "byteOffset": 1048528,
      "componentType": 5126,
      "count": 65532,
      "max": [
        0.9996389746665955,
        0.99965500831604
      ],
      "min": [
        0.00034500000765547156,
        0.0005169999785721302
      ],
      "type": "VEC2"
    },
    {
      "bufferView": 0,
      "byteOffset": 2049324,
      "componentType": 5125,
      "count": 143013,
      "type": "SCALAR"
    },
    {
      "bufferView": 2,
      "byteOffset": 4718352,
      "componentType": 5126,
      "count": 44488,
      "max": [
        3.1799418926239014,
        -5.547606945037842,
        4.401413917541504
      ],
      "min": [
        -2.9249401092529297,
        -10.517334938049316,
        -3.921889066696167
      ],
      "type": "VEC3"
    },
    {
      "bufferView": 2,
      "byteOffset": 5252208,
      "componentType": 5126,
      "count": 44488,
      "max": [
        0.9999471306800842,
        0.9999992251396179,
        0.9999918937683105
      ],
      "min": [
        -0.9999495148658752,
        -0.9999988675117493,
        -0.9997945427894592
      ],
      "type": "VEC3"
    },
    {
      "bufferView": 1,
      "byteOffset": 1572784,
      "componentType": 5126,
      "count": 44488,
      "max": [
        0.9996520280838013,
        0.9996479749679565
      ],
      "min": [
        0.00034500000765547156,
        0.0006040000007487833
      ],
      "type": "VEC2"
    },
    {
      "bufferView": 0,
      "byteOffset": 2621376,
      "componentType": 5125,
      "count": 62340,
      "type": "SCALAR"
    }
  ],
  "asset": {
    "extras": {
      "author": "Sikozu (https://sketchfab.com/sikozu)",
      "license": "CC-BY-4.0 (http://creativecommons.org/licenses/by/4.0/)",
      "source": "https://sketchfab.com/3d-models/s-oliver-mens-sneaker-8fbfb7f2c3d7442b8dd7e861bc23758b",
      "title": "S Oliver Mens Sneaker"
    },
    "generator": "Sketchfab-12.16.1",
    "version": "2.0"
  },
  "bufferViews": [
    {
      "buffer": 0,
      "byteLength": 2870736,
      "name": "floatBufferViews",
      "target": 34963
    },
    {
      "buffer": 0,
      "byteLength": 1928688,
      "byteOffset": 2870736,
      "byteStride": 8,
      "name": "floatBufferViews",
      "target": 34962
    },
    {
      "buffer": 0,
      "byteLength": 5786064,
      "byteOffset": 4799424,
      "byteStride": 12,
      "name": "floatBufferViews",
      "target": 34962
    }
  ],
  "buffers": [
    {
      "byteLength": 10585488,
      "uri": "scene.bin"
    }
  ],
  "images": [
    {
      "uri": "textures/export_baseColor.png"
    },
    {
      "uri": "textures/export_metallicRoughness.png"
    }
  ],
  "materials": [
    {
      "doubleSided": true,
      "name": "export",
      "pbrMetallicRoughness": {
        "baseColorTexture": {
          "index": 0
        },
        "metallicFactor": 0.0,
        "metallicRoughnessTexture": {
          "index": 1
        }
      }
    }
  ],
  "meshes": [
    {
      "name": "Object_0",
      "primitives": [
        {
          "attributes": {
            "NORMAL": 1,
            "POSITION": 0,
            "TEXCOORD_0": 2
          },
          "indices": 3,
          "material": 0,
          "mode": 4
        }
      ]
    },
    {
      "name": "Object_1",
      "primitives": [
        {
          "attributes": {
            "NORMAL": 5,
            "POSITION": 4,
            "TEXCOORD_0": 6
          },
          "indices": 7,
          "material": 0,
          "mode": 4
        }
      ]
    },
    {
      "name": "Object_2",
      "primitives": [
        {
          "attributes": {
            "NORMAL": 9,
            "POSITION": 8,
            "TEXCOORD_0": 10
          },
          "indices": 11,
          "material": 0,
          "mode": 4
        }
      ]
    },
    {
      "name": "Object_3",
      "primitives": [
        {
          "attributes": {
            "NORMAL": 13,
            "POSITION": 12,
            "TEXCOORD_0": 14
          },
          "indices": 15,
          "material": 0,
          "mode": 4
        }
      ]
    }
  ],
  "nodes": [
    {
      "children": [
        1
      ],
      "matrix": [
        -0.5798128247261047,
        -0.0048992754891512965,
        -0.8147349953651428,
        0.0,
        0.002840696834027767,
        -0.9999880194664001,
        0.00399165879935004,
        0.0,
        -0.814744770526886,
        -1.2874585807888105e-16,
        0.5798197984695435,
        0.0,
        0.42851167917251587,
        -7.7810006141662615,
        8.023008346557615,
        1.0
      ],
      "name": "Sketchfab_model"
    },
    {
      "children": [
        2,
        3,
        4,
        5
      ],
      "name": "export.obj.cleaner.materialmerger.gles"
    },
    {
      "mesh": 0,
      "name": "Object_2"
    },
    {
      "mesh": 1,
      "name": "Object_3"
    },
    {
      "mesh": 2,
      "name": "Object_4"
    },
    {
      "mesh": 3,
      "name": "Object_5"
    }
  ],
  "samplers": [
    {
      "magFilter": 9729,
      "minFilter": 9987,
      "wrapS": 10497,
      "wrapT": 10497
    }
  ],
  "scene": 0,
  "scenes": [
    {
      "name": "Sketchfab_Scene",
      "nodes": [
        0
      ]
    }
  ],
  "textures": [
    {
      "sampler": 0,
      "source": 0
    },
    {
      "sampler": 0,
      "source": 1
    }
  ]
}
